<svg width="40" height="40" viewBox="0 0 40 40" fill="none" xmlns="http://www.w3.org/2000/svg">
  <rect width="40" height="40" rx="12" fill="url(#paint0_linear_1_2)" />
  <path
    d="M12 10C12 6.13401 15.134 3 19 3H21C24.866 3 28 6.13401 28 10V26C28 30.4183 24.4183 34 20 34C15.5817 34 12 30.4183 12 26V10Z"
    fill="white"
    opacity="0.92"
  />
  <path
    d="M30 12.5C30 9.46243 32.4624 7 35.5 7C38.5376 7 41 9.46243 41 12.5C41 15.008 39.4375 17.2063 36.566 20.0785C34.5892 22.0552 33.5 23.6813 33.5 25.5V28H30V25.5C30 22.8875 31.548 20.5287 34.6408 17.4359C36.7793 15.2974 37.8571 13.8125 37.8571 12.5C37.8571 11.1193 36.8807 10.1429 35.5 10.1429C34.1193 10.1429 33.1429 11.1193 33.1429 12.5V13.2857H30V12.5Z"
    fill="white"
  />
  <defs>
    <linearGradient id="paint0_linear_1_2" x1="4" y1="4" x2="36" y2="36" gradientUnits="userSpaceOnUse">
      <stop stop-color="#1D4ED8" />
      <stop offset="0.55" stop-color="#2563EB" />
      <stop offset="1" stop-color="#60A5FA" />
    </linearGradient>
  </defs>
</svg>
