<svg width="40" height="40" viewBox="0 0 40 40" fill="none" xmlns="http://www.w3.org/2000/svg">
  <rect width="40" height="40" rx="12" fill="url(#paint0_linear_1_2)" />
  <path
    d="M12 27C12 20.3726 17.3726 15 24 15H28V19H24C19.5817 19 16 22.5817 16 27C16 31.4183 19.5817 35 24 35H28V39H24C17.3726 39 12 33.6274 12 27Z"
    fill="white"
  />
  <path
    d="M28 9C28 12.866 24.866 16 21 16C17.134 16 14 12.866 14 9C14 5.13401 17.134 2 21 2C24.866 2 28 5.13401 28 9Z"
    fill="white"
  />
  <defs>
    <linearGradient id="paint0_linear_1_2" x1="0" y1="0" x2="40" y2="40" gradientUnits="userSpaceOnUse">
      <stop stop-color="#54B3FF" />
      <stop offset="1" stop-color="#0062FF" />
    </linearGradient>
  </defs>
</svg>
